<svg xmlns="http://www.w3.org/2000/svg" xmlns:xlink="http://www.w3.org/1999/xlink" height="500" width="500">
  <g>
    <g opacity="1">
      <g opacity="1">
        <path fill-opacity="0" stroke="rgb(168,168,168)" stroke-opacity="1" stroke-width="0.4" stroke-linecap="butt" stroke-linejoin="miter" opacity="1" fill-rule="evenodd" d="M322.2455257345744 42.32870104265109L49.94013015074199 117.92758847997699L41.61078863876594 382.5236945106176L278.0359438633169 486.3119976025396L420.91618672259847 394.05572818749783L451.6706784591254 206.98051520699647L242.79642208187977 238.37327354961485L322.2455257345744 42.32870104265109Z"/>
      </g>
      <g opacity="1">
        <path fill-opacity="0" stroke="rgb(168,168,168)" stroke-opacity="1" stroke-width="0.4" stroke-linecap="butt" stroke-linejoin="miter" opacity="1" fill-rule="evenodd" d="M240.87426634834677 235.81059939919714L51.2215673064306 118.56825701758149L421.55690530044257 394.05572818749806L39.688632905233 382.5236945106179L322.24552573457436 43.61003811786001L421.55690530044257 394.05572818749806L241.51498492619106 235.81059939919714L277.3952252854725 486.95266614014434L50.58084872858629 118.56825701758149L451.6706784591252 209.5431893574144L40.97007006092162 382.5236945106179L243.437140659724 235.81059939919714"/>
      </g>
    </g>
    <g opacity="1">
      <g transform="translate(42.25150724550895, 109.59889743732583)" opacity="1">
        <g opacity="1">
          <ellipse fill="rgb(30,103,155)" fill-opacity="1" opacity="1" rx="8.329341511976049" ry="8.328690988857936" cx="8.329341511976049" cy="8.328690988857936"/>
        </g>
      </g>
      <g transform="translate(32.000009999999975, 373.5543349303621)" opacity="1">
        <g opacity="1">
          <ellipse fill="rgb(30,103,155)" fill-opacity="1" opacity="1" rx="8.329341511976049" ry="8.328690988857943" cx="8.329341511976049" cy="8.328690988857943"/>
        </g>
      </g>
      <g transform="translate(269.06588380239515, 477.34263802228406)" opacity="1">
        <g opacity="1">
          <ellipse fill="rgb(30,103,155)" fill-opacity="1" opacity="1" rx="8.329341511976054" ry="8.328690988857943" cx="8.329341511976054" cy="8.328690988857943"/>
        </g>
      </g>
      <g transform="translate(412.58684523952087, 385.0863686072423)" opacity="1">
        <g opacity="1">
          <ellipse fill="rgb(30,103,155)" fill-opacity="1" opacity="1" rx="8.329341511976054" ry="8.328690988857943" cx="8.329341511976054" cy="8.328690988857943"/>
        </g>
      </g>
      <g transform="translate(443.34133697604784, 199.2924927019498)" opacity="1">
        <g opacity="1">
          <ellipse fill="rgb(30,103,155)" fill-opacity="1" opacity="1" rx="8.329341511976054" ry="8.328690988857943" cx="8.329341511976054" cy="8.328690988857943"/>
        </g>
      </g>
      <g transform="translate(313.91618425149693, 34.000009999999975)" opacity="1">
        <g opacity="1">
          <ellipse fill="rgb(30,103,155)" fill-opacity="1" opacity="1" rx="8.329341511976082" ry="8.32869098885794" cx="8.329341511976082" cy="8.32869098885794"/>
        </g>
      </g>
      <g transform="translate(234.46708059880237, 227.48190835654592)" opacity="1">
        <g opacity="1">
          <ellipse fill="rgb(30,103,155)" fill-opacity="1" opacity="1" rx="8.329341511976054" ry="8.328690988857943" cx="8.329341511976054" cy="8.328690988857943"/>
        </g>
      </g>
    </g>
  </g>
</svg>